<?xml version="1.0" encoding="utf-8"?>
<!-- Generator: Adobe Illustrator 23.0.2, SVG Export Plug-In . SVG Version: 6.00 Build 0)  -->
<svg version="1.1" id="Layer_1" xmlns="http://www.w3.org/2000/svg" xmlns:xlink="http://www.w3.org/1999/xlink" x="0px" y="0px"
	 viewBox="0 0 512 512" style="enable-background:new 0 0 512 512;" xml:space="preserve">
<style type="text/css">
	.st0{fill:#1D70B8;}
</style>
<path class="st0" d="M256,512C114.8,512,0,397.2,0,256S114.8,0,256,0s256,114.8,256,256S397.2,512,256,512z M256,32
	C132.5,32,32,132.5,32,256s100.5,224,224,224s224-100.5,224-224S379.5,32,256,32z"/>
<path class="st0" d="M368,272H144c-8.8,0-16-7.2-16-16s7.2-16,16-16h224c8.8,0,16,7.2,16,16S376.8,272,368,272z"/>
<path class="st0" d="M256,384c-8.8,0-16-7.2-16-16V144c0-8.8,7.2-16,16-16s16,7.2,16,16v224C272,376.8,264.8,384,256,384z"/>
</svg>
