<?xml version="1.0" encoding="utf-8"?>
<!-- Generator: Adobe Illustrator 23.0.2, SVG Export Plug-In . SVG Version: 6.00 Build 0)  -->
<svg version="1.1" id="Layer_1" xmlns="http://www.w3.org/2000/svg" xmlns:xlink="http://www.w3.org/1999/xlink" x="0px" y="0px"
	 viewBox="0 0 512 512" style="enable-background:new 0 0 512 512;" xml:space="preserve">
<style type="text/css">
	.st0{fill:#D4351C;}
</style>
<g>
	<g>
		<path class="st0" d="M256,512c141.2,0,256-114.8,256-256S397.2,0,256,0S0,114.8,0,256S114.8,512,256,512z M134.3,198.3
			c4.2-4.2,9.6-6.3,15.1-6.3s10.9,2.1,15.1,6.3l91.5,91.5l91.6-91.6c8.3-8.3,21.8-8.3,30.2,0c8.3,8.3,8.3,21.8,0,30.2L271.1,335.1
			c-8.3,8.3-21.8,8.3-30.2,0L134.2,228.4C125.9,220.1,125.9,206.6,134.3,198.3z"/>
	</g>
</g>
</svg>
