<?xml version="1.0" encoding="utf-8"?>
<!-- Generator: Adobe Illustrator 23.0.2, SVG Export Plug-In . SVG Version: 6.00 Build 0)  -->
<svg version="1.1" id="Layer_1" xmlns="http://www.w3.org/2000/svg" xmlns:xlink="http://www.w3.org/1999/xlink" x="0px" y="0px"
	 viewBox="0 0 229 209.4" style="enable-background:new 0 0 229 209.4;" xml:space="preserve">
<style type="text/css">
	.st0{fill:#1D70B8;}
</style>
<path class="st0" d="M181.1,204.7l-35.5-32.3c-7-6.4-6.8-17.1,0.5-23.8l17.9-16.3c-0.6-1-1.3-2.1-2-3.2
	c-6.2-10.3-14.8-24.4-31.1-39.2C114.7,75,99.3,67.2,88,61.5c-1.2-0.6-2.3-1.2-3.4-1.8l-12,10.9L66.7,76c-7.3,6.7-19,6.9-26.1,0.4
	L5.1,44.1c-7-6.4-6.8-17.1,0.5-23.8l10-9.1l0.3,0.2c4.3-3.1,9.2-5.6,14.5-7.5c5.1-1.8,9.9-2.8,14.7-3.3
	C84-3.6,119.5,12.6,167.6,56.5c66.5,60.7,61.5,109.6,61.2,111.7c-0.6,4.6-1.8,9-3.7,13.5c-2.1,4.8-4.9,9.3-8.2,13.2l0.2,0.2
	l-9.9,9.2C199.9,210.9,188.2,211.1,181.1,204.7z"/>
</svg>
