<?xml version="1.0" encoding="utf-8"?>
<!-- Generator: Adobe Illustrator 23.0.2, SVG Export Plug-In . SVG Version: 6.00 Build 0)  -->
<svg version="1.1" id="Capa_1" xmlns="http://www.w3.org/2000/svg" xmlns:xlink="http://www.w3.org/1999/xlink" x="0px" y="0px"
	 viewBox="0 0 399.6 550.8" style="enable-background:new 0 0 399.6 550.8;" xml:space="preserve">
<style type="text/css">
	.st0{fill:#FFFFFF;}
</style>
<g>
	<g>
		<path class="st0" d="M399.5,132c0-2.5-0.8-5-2.6-7L290.7,3.7c0,0-0.1,0-0.1-0.1c-0.6-0.7-1.4-1.3-2.2-1.8
			c-0.2-0.1-0.5-0.3-0.7-0.4c-0.7-0.4-1.4-0.7-2.1-0.9c-0.2-0.1-0.4-0.1-0.6-0.2c-0.8-0.2-1.6-0.3-2.5-0.3h-261C9.7,0,0,9.7,0,21.6
			v507.6c0,11.9,9.7,21.6,21.6,21.6H378c11.9,0,21.6-9.7,21.6-21.6v-396C399.6,132.8,399.5,132.4,399.5,132z M105.5,495.7
			c8.9,0,18.8-1.9,24.7-4.3l4.5,23.1c-5.4,2.7-17.7,5.6-33.6,5.6c-45.3,0-68.6-28.2-68.6-65.5c0-44.7,31.9-69.6,71.5-69.6
			c15.4,0,27,3.1,32.3,5.8l-6,23.5c-6-2.5-14.4-4.8-24.9-4.8c-23.5,0-41.8,14.2-41.8,43.3C63.5,479.2,79.1,495.7,105.5,495.7z
			 M186.2,520.2c-15,0-29.7-3.9-37.1-8l6-24.5c8,4.1,20.2,8.2,32.9,8.2c13.6,0,20.8-5.6,20.8-14.2c0-8.2-6.2-12.8-22-18.5
			c-21.8-7.6-36-19.6-36-38.7c0-22.4,18.7-39.5,49.6-39.5c14.8,0,25.7,3.1,33.4,6.6l-6.6,23.9c-5.3-2.5-14.6-6.2-27.4-6.2
			c-12.8,0-19,5.8-19,12.6c0,8.4,7.4,12.1,24.3,18.5c23.1,8.6,34,20.6,34,39.1C239,501.5,222.1,520.2,186.2,520.2z M324.6,518.2H290
			l-42-131h32.5l15.9,55.4c4.5,15.5,8.6,30.5,11.7,46.8h0.6c3.3-15.7,7.4-31.3,11.9-46.3l16.7-56h31.5L324.6,518.2z M21.6,366.8
			V21.6h250.2v110.5c0,6,4.8,10.8,10.8,10.8H378v223.8L21.6,366.8L21.6,366.8z"/>
		<path class="st0" d="M301.6,170.1h-66.1h-2.3H167l0,0h-65v29.2v2.2v27v2.3v26.9v2.3v29.2h68.5l0,0h131.3v-92.7h-0.1L301.6,170.1
			L301.6,170.1z M168.1,287h-63.8V260h63.8L168.1,287L168.1,287z M168.1,257.7h-63.8v-26.9h63.8L168.1,257.7L168.1,257.7z
			 M168.1,228.5h-63.8v-26.9H167h1.1L168.1,228.5L168.1,228.5z M169.3,199.3v-26.9h63.8v26.9h-62.7H169.3z M299,286.6h-25.2v-77.1
			h-17.3v77.1h-14.4v-61.1h-17.3v61.1h-12.7v-45.4h-17.3v45.4h-24.3V260v-2.3v-26.9v-2.3v-26.9h62.7h2.3H299L299,286.6L299,286.6z
			 M299.3,196.6H299v2.7h-63.6v-26.9h63.8L299.3,196.6L299.3,196.6z"/>
	</g>
</g>
</svg>
