<?xml version="1.0" encoding="utf-8"?>
<!-- Generator: Adobe Illustrator 23.0.2, SVG Export Plug-In . SVG Version: 6.00 Build 0)  -->
<svg version="1.1" id="Capa_1" xmlns="http://www.w3.org/2000/svg" xmlns:xlink="http://www.w3.org/1999/xlink" x="0px" y="0px"
	 viewBox="0 0 512 480" style="enable-background:new 0 0 512 480;" xml:space="preserve">
<style type="text/css">
	.st0{fill:#00703C;}
</style>
<g>
	<g>
		<path class="st0" d="M496,64H288V16c0-4.8-2.1-9.3-5.8-12.3c-3.6-3-8.5-4.4-13.2-3.4l-256,48C5.5,49.7,0,56.3,0,64v352
			c0,7.7,5.5,14.3,13.1,15.7l256,48c1,0.2,2,0.3,2.9,0.3c3.7,0,7.3-1.3,10.2-3.7c3.7-3,5.8-7.6,5.8-12.3v-48h208c8.8,0,16-7.2,16-16
			V80C512,71.2,504.8,64,496,64z M220,293.5c5.8,6.6,5.2,16.7-1.5,22.6c-3,2.7-6.8,4-10.5,4c-4.4,0-8.9-1.9-12-5.5l-46.5-53.2
			l-40.8,52.5c-3.2,4-7.9,6.1-12.6,6.1c-3.4,0-6.9-1.1-9.8-3.4c-7-5.4-8.2-15.5-2.8-22.5l44.6-57.3l-44-50.3
			c-5.8-6.6-5.2-16.7,1.5-22.6c6.6-5.8,16.7-5.2,22.6,1.5l39.9,45.6l47.4-60.9c5.4-6.9,15.5-8.2,22.5-2.8s8.2,15.5,2.8,22.5
			l-51.2,65.8L220,293.5z M480,384H288v-32h48c8.8,0,16-7.2,16-16s-7.2-16-16-16h-48v-32h48c8.8,0,16-7.2,16-16s-7.2-16-16-16h-48
			v-32h48c8.8,0,16-7.2,16-16s-7.2-16-16-16h-48v-32h48c8.8,0,16-7.2,16-16s-7.2-16-16-16h-48V96h192V384z"/>
	</g>
</g>
<g>
	<g>
		<path class="st0" d="M432,128h-32c-8.8,0-16,7.2-16,16s7.2,16,16,16h32c8.8,0,16-7.2,16-16S440.8,128,432,128z"/>
	</g>
</g>
<g>
	<g>
		<path class="st0" d="M432,192h-32c-8.8,0-16,7.2-16,16s7.2,16,16,16h32c8.8,0,16-7.2,16-16S440.8,192,432,192z"/>
	</g>
</g>
<g>
	<g>
		<path class="st0" d="M432,256h-32c-8.8,0-16,7.2-16,16s7.2,16,16,16h32c8.8,0,16-7.2,16-16S440.8,256,432,256z"/>
	</g>
</g>
<g>
	<g>
		<path class="st0" d="M432,320h-32c-8.8,0-16,7.2-16,16s7.2,16,16,16h32c8.8,0,16-7.2,16-16S440.8,320,432,320z"/>
	</g>
</g>
</svg>
