<?xml version="1.0" encoding="utf-8"?>
<!-- Generator: Adobe Illustrator 23.0.2, SVG Export Plug-In . SVG Version: 6.00 Build 0)  -->
<svg version="1.1" id="Capa_1" xmlns="http://www.w3.org/2000/svg" xmlns:xlink="http://www.w3.org/1999/xlink" x="0px" y="0px"
	 viewBox="0 0 595.3 761.4" style="enable-background:new 0 0 595.3 761.4;" xml:space="preserve">
<style type="text/css">
	.st0{fill:#1D70B8;}
</style>
<g>
	<path class="st0" d="M585.7,160l-10.1-10.1L443.1,17.4L433,7.3c-4.6-4.6-10.9-7.2-17.4-7.2H34.6c-15.6,0-32.3,12-32.3,38.4V512V729
		v6.1c0,11,11.1,21.7,24.1,25.1c0.7,0.2,1.3,0.4,2,0.6c2,0.4,4.1,0.6,6.2,0.6h526c2.1,0,4.2-0.2,6.2-0.6c0.7-0.1,1.3-0.4,2-0.6
		c13.1-3.4,24.1-14.1,24.1-25.1V729V512V183.6C593,173.5,591.8,166.1,585.7,160z M546.2,157.6H435.5V46.9L546.2,157.6z M34.6,735.1
		c-0.9,0-1.8-0.3-2.6-0.6c-2-1-3.5-3-3.5-5.4V538.2h538.1V729c0,2.4-1.4,4.4-3.5,5.4c-0.8,0.3-1.7,0.6-2.6,0.6L34.6,735.1
		L34.6,735.1z M28.6,512V38.5c0-2.8,0.4-12.2,6.1-12.2H410c-0.4,1.7-0.8,3.4-0.8,5.1v152.4h152.4c1.8,0,3.5-0.3,5.1-0.8
		c0,0.2,0,0.3,0,0.5V512L28.6,512L28.6,512z"/>
	<path class="st0" d="M206.3,587.4c-4.4-3.6-9.3-6.3-14.8-8.1c-5.5-1.8-11.1-2.7-16.7-2.7h-38v132.3h21.5v-47.7h16
		c6.9,0,13.3-1,19-3c5.7-2,10.6-4.9,14.7-8.6c4.1-3.7,7.2-8.3,9.5-13.7c2.3-5.4,3.4-11.5,3.4-18.2c0-6.3-1.4-12-4-17.1
		C214.2,595.3,210.7,591,206.3,587.4z M198.1,631.1c-1.3,3.6-3,6.5-5.2,8.5c-2.2,2-4.5,3.5-7.1,4.4c-2.6,0.9-5.2,1.4-7.8,1.4h-19.7
		v-52.4h16.1c5.5,0,9.9,0.9,13.3,2.6c3.3,1.7,5.9,3.9,7.8,6.5c1.9,2.6,3.1,5.3,3.7,8.1c0.6,2.8,0.9,5.3,0.9,7.4
		C200.1,622.9,199.5,627.4,198.1,631.1z"/>
	<path class="st0" d="M336.4,596c-5.6-5.9-12.6-10.6-21-14.1c-8.4-3.5-18.2-5.3-29.3-5.3h-39.8v132.3h50.1c1.7,0,4.2-0.2,7.7-0.6
		c3.5-0.4,7.3-1.4,11.5-2.9c4.2-1.5,8.5-3.7,13-6.7c4.5-3,8.5-7.1,12.1-12.3c3.6-5.2,6.6-11.7,8.9-19.4c2.3-7.7,3.5-17,3.5-27.9
		c0-7.9-1.4-15.6-4.1-23.1C346.1,608.5,342,601.9,336.4,596z M320.7,679.1c-6.5,9.3-17,14-31.6,14h-21.4V592.9h12.6
		c10.3,0,18.7,1.4,25.1,4c6.5,2.7,11.6,6.2,15.3,10.6c3.8,4.4,6.3,9.2,7.6,14.6c1.3,5.4,2,10.8,2,16.3
		C330.4,656.2,327.2,669.8,320.7,679.1z"/>
	<polygon class="st0" points="384.2,708.9 406.1,708.9 406.1,649.3 461.4,649.3 461.4,634.6 406.1,634.6 406.1,592.9 467,592.9 
		467,576.6 384.2,576.6 	"/>
	<path class="st0" d="M421.4,301.5c-12.1,0-26.9,1.6-44.1,4.7c-24-25.5-49.1-62.7-66.8-99.3c17.5-73.9,8.8-84.3,4.9-89.3
		c-4.1-5.2-9.9-13.8-16.6-13.8c-2.8,0-10.3,1.3-13.3,2.3c-7.6,2.5-11.6,8.3-14.9,15.9c-9.3,21.7,3.5,58.7,16.6,87.2
		c-11.2,44.5-30,97.8-49.7,141.1c-49.7,22.8-76.2,45.2-78.6,66.5c-0.9,7.8,1,19.2,14.6,29.4c3.7,2.8,8.1,4.3,12.7,4.3l0,0
		c11.5,0,23.1-8.8,36.5-27.7c9.8-13.8,20.3-32.5,31.3-55.8c35.1-15.4,78.6-29.3,115.9-37c20.7,19.9,39.3,30,55.3,30
		c11.8,0,21.8-5.4,29.1-15.6c7.6-10.6,9.3-20.2,5.1-28.4C454.4,306.3,441.9,301.5,421.4,301.5z M186.5,428.4
		c-6.1-4.7-5.8-7.9-5.7-9.1c0.8-7.3,12.2-20.3,40.3-36C199.9,422.6,188.5,427.8,186.5,428.4z M294.2,127.6
		c0.6-0.2,13.7,14.5,1.3,42.2C276.7,150.6,292.9,128,294.2,127.6z M267,337.9c13.3-31.8,25.7-66.8,35.1-99.3
		c14.7,26.5,32.4,52.2,50.2,72.8C324.3,318,294.5,327.3,267,337.9z M436.4,331.6c-4,5.7-12.8,5.8-15.9,5.8c-7,0-9.6-4.2-20.3-12.4
		c8.8-1.1,17.1-1.4,23.8-1.4c11.7,0,13.8,1.7,15.4,2.6C439.1,327.1,438.3,328.9,436.4,331.6z"/>
</g>
</svg>
