<?xml version="1.0" encoding="utf-8"?>
<!-- Generator: Adobe Illustrator 23.0.2, SVG Export Plug-In . SVG Version: 6.00 Build 0)  -->
<svg version="1.1" id="Capa_1" xmlns="http://www.w3.org/2000/svg" xmlns:xlink="http://www.w3.org/1999/xlink" x="0px" y="0px"
	 viewBox="0 0 55.7 55.7" style="enable-background:new 0 0 55.7 55.7;" xml:space="preserve">
<style type="text/css">
	.st0{fill:#FFFFFF;}
</style>
<g>
	<g>
		<path class="st0" d="M27.9,0C12.5,0,0,12.5,0,27.9s12.5,27.9,27.9,27.9s27.9-12.5,27.9-27.9C55.7,12.5,43.2,0,27.9,0z M27.9,51.2
			C15,51.2,4.5,40.7,4.5,27.9C4.5,15,15,4.5,27.9,4.5S51.2,15,51.2,27.9S40.7,51.2,27.9,51.2z"/>
		<path class="st0" d="M36.7,19l-13,13L19,27.2c-0.9-0.9-2.3-0.9-3.2,0c-0.9,0.9-0.9,2.3,0,3.2l6.3,6.3c0.4,0.4,1,0.7,1.6,0.7
			s1.1-0.2,1.6-0.7l14.6-14.6c0.9-0.9,0.9-2.3,0-3.2C39,18.1,37.6,18.1,36.7,19z"/>
	</g>
</g>
</svg>
